<svg width="26" height="27" viewBox="0 0 26 27" fill="none" xmlns="http://www.w3.org/2000/svg">
<path d="M5.39832 14.0225L6.58803 12.8328C6.93238 12.4885 6.93238 11.9355 6.58803 11.6016L4.21931 9.23287C3.87497 8.88852 3.32174 8.88852 2.98783 9.23287C0.337391 11.8833 0.337391 16.1719 2.98783 18.8224L7.82971 23.6643C10.4801 26.3147 14.7688 26.3147 17.4192 23.6643C17.7636 23.3199 17.7636 22.7669 17.4192 22.433L15.0505 20.0643C14.7061 19.72 14.1534 19.72 13.8195 20.0643L12.6298 21.2538" stroke="#3A5373" stroke-miterlimit="10"/>
<path d="M3.5929 15.8271L10.8137 23.0479" stroke="#3A5373" stroke-miterlimit="10"/>
<rect x="11.4348" y="1" width="13.5652" height="13.5652" stroke="#3A5373"/>
<path d="M15.6086 7.39631L17.5494 9.3373L21.7233 5.17383" stroke="#3A5373" stroke-miterlimit="10"/>
</svg>
